<svg id="Layer_1" data-name="Layer 1" xmlns="http://www.w3.org/2000/svg" viewBox="0 0 298.92 50.36"><defs><style>.cls-1{stroke:#000;stroke-miterlimit:10;stroke-width:0.15px;}</style></defs><path class="cls-1" d="M27.81,56.62a13.38,13.38,0,0,1-2.53-.22A13.9,13.9,0,0,1,18,53c-3-2.91-5.76-7.48-8.14-13.58C8.4,35.76,7.23,33.09,6.29,31,4.7,27.34,3.91,25.52,4,24.11c.19-2.19,3.54-6.57,12-9.69a32,32,0,0,1,10.89-2.11c3.35,0,6,.77,7.06,2.06.84,1,1.19,3,1.54,4.87.11.6.21,1.19.33,1.76,3.47-1.11,12.94-3.78,19.5-5.16,7.71-1.63,25.2-4.6,36.18-5.76l.19,0c10.94-1.15,27.49-2.89,39.74-3.32,5.69-.2,13.49-.31,22-.33s16.22.13,21.89.33c12.25.43,28.78,2.16,39.73,3.31l.2,0c11,1.15,28.47,4.13,36.18,5.75,6.55,1.38,16,4,19.49,5.16.13-.56.23-1.16.34-1.75.35-1.91.7-3.87,1.54-4.87,1.07-1.29,3.71-2.07,7.06-2.07a31.75,31.75,0,0,1,10.88,2.12c8.49,3.12,11.84,7.5,12,9.68.12,1.42-.67,3.23-2.26,6.85-.94,2.14-2.11,4.81-3.52,8.36-2.39,6.16-5.13,10.73-8.15,13.63a14,14,0,0,1-7.32,3.46,16.12,16.12,0,0,1-5.69-.09,123.59,123.59,0,0,0-12.55-4.22c-9.73-2.9-25.07-5.74-31.83-6.84C223.64,44,207.71,42,201.06,41.38c-7.32-.68-23.53-2-32.44-2.29-4.56-.14-9.05-.21-13.34-.21h-3.64c-4.39,0-8.92.08-13.46.21-9.28.28-26.57,1.75-32.44,2.3C99.09,42,83.15,44,75.35,45.26c-6.77,1.1-22.14,3.94-31.83,6.83A122.75,122.75,0,0,0,31,56.32,13.16,13.16,0,0,1,27.81,56.62ZM6.46,27.81c.46,1,1.44,3.48,2.32,5.68.6,1.49,1.16,2.89,1.51,3.74,2.43,5.93,4.56,10.76,8.08,14.42a12.76,12.76,0,0,0,8,3.65h.29c-3.36-1.44-6-4.94-6.85-6.13-1.85-2.49-4.93-10.74-5.59-12.73-.3-.9-.93-2.59-1.54-4.22-.48-1.29-.94-2.55-1.23-3.35A14.2,14.2,0,0,1,6.46,27.81Zm274,27.48a12.75,12.75,0,0,0,8-3.64c3.53-3.66,5.66-8.49,8.09-14.43.35-.85.93-2.28,1.53-3.79.92-2.27,1.85-4.61,2.3-5.63a14,14,0,0,1-4.95,1.05h0c-.29.81-.76,2.07-1.24,3.36-.61,1.64-1.23,3.32-1.53,4.22-.66,2-3.74,10.25-5.59,12.74-.89,1.19-3.49,4.68-6.85,6.12ZM21,28.29c.4,1.19,3.35,10.06,4.27,12.6s4.7,13,5.2,14.37c1-.38,7.31-2.69,12.19-4.07,5.21-1.49,15.88-4,20.37-4.76l4.62-.85c4.59-.87,10.87-2,16.46-2.8,7.57-1,19.25-2.22,25.52-2.86l.74-.07c7.23-.74,19.26-1.66,26.07-1.88s11.67-.3,16.24-.3h1.6c4.45,0,9.42.09,16.12.3,6.85.22,18.87,1.14,26.07,1.87l.76.08c6.27.64,17.93,1.83,25.5,2.85,5.61.76,11.91,1.95,16.52,2.81,1.78.34,3.33.63,4.55.84,4.48.78,15.15,3.27,20.38,4.77,4.88,1.38,11.16,3.68,12.19,4.07.5-1.37,4.26-11.84,5.19-14.38s3.88-11.41,4.28-12.59c-2.68-1.27-8.94-3.95-14.83-6a199.82,199.82,0,0,0-21.07-5.64c-7.08-1.5-12.67-2.4-16.36-3l-2.3-.37c-4.9-.81-9.6-1.37-13.75-1.87l-2-.25c-4.41-.54-13.85-1.55-20.13-2L193.41,9c-5.63-.43-11.46-.87-16.1-1.15-3.93-.25-13.58-.51-22.94-.52h-1.88c-9.37,0-19.06.28-23,.52-4.79.29-10.81.75-16.64,1.2l-1.38.1c-6.3.48-15.74,1.5-20.13,2l-2,.24c-4.18.5-8.91,1.07-13.85,1.89l-2.27.36c-3.7.6-9.29,1.49-16.39,3a198,198,0,0,0-21.07,5.65C29.94,24.34,23.67,27,21,28.29Zm5.46-15A33.88,33.88,0,0,0,15.51,15.8c-7.92,3.35-9.69,6.4-10,7.92a2.3,2.3,0,0,0,.33,2c.87,1,1.64,1.61,6.48,1.87h.11l0,.11c.66,2.2,5.48,15.58,6.9,18.1a24.14,24.14,0,0,0,4.83,6.42,9.72,9.72,0,0,0,4.69,2.38c-.16-.45-.5-1.37-.92-2.49-.78-2.1-1.81-4.88-2.34-6.41l-.06-.18c-.91-2.65-2.61-7.6-3.15-9.35-.24-.78-.79-2.34-1.37-4-.76-2.17-1.55-4.41-1.82-5.38l0-.15.15,0C25,24.89,26.77,24,29.38,22.18c2.85-2,4.73-4.64,4.37-6.17-.56-2.42-4.91-2.69-6.75-2.69Zm253.34,0c-1.84,0-6.17.26-6.73,2.69-.36,1.53,1.52,4.18,4.37,6.16,2.6,1.81,4.43,2.71,10.08,4.47l.14,0,0,.15c-.27,1-1.05,3.19-1.81,5.35-.58,1.67-1.13,3.24-1.37,4-.52,1.68-2.09,6.25-3,9l-.2.55c-.53,1.57-1.6,4.45-2.39,6.57-.39,1.05-.71,1.91-.86,2.34a9.8,9.8,0,0,0,4.69-2.39,24,24,0,0,0,4.83-6.41c1.42-2.53,6.24-15.91,6.9-18.11l0-.1h.11c4.74-.25,5.61-.87,6.48-1.87a2.33,2.33,0,0,0,.33-2c-.35-1.52-2.12-4.57-10-7.91a33.82,33.82,0,0,0-10.93-2.47ZM34.18,18.9a17.05,17.05,0,0,1-3.66,3.93c1-.34,2.83-.92,3.94-1.31a.44.44,0,0,0,.16-.07.2.2,0,0,1,.11-.13A18.09,18.09,0,0,0,34.18,18.9Zm238,2.55.16.07c1.1.38,2.91,1,3.94,1.3a16.84,16.84,0,0,1-3.66-3.93,17.64,17.64,0,0,0-.55,2.44Zm-243,12.42A9.16,9.16,0,0,0,29,39.61a8.47,8.47,0,0,0,2.45,4.09,9.92,9.92,0,0,0,4.15,2.45,9.68,9.68,0,0,0,4.9,0,9.41,9.41,0,0,0,3-1.31A10,10,0,0,0,46,42.47a11.71,11.71,0,0,0,1.75-3.3c0-.63-.21-.81-.6-.2a16.51,16.51,0,0,1-2.7,2.55,7.79,7.79,0,0,1-3,1.39l-.5.12-4-14.55a8.77,8.77,0,0,0,4.75.49s1.44-2.44,2.09-2.65.15-.5.15-.5l-1.05.25a11.24,11.24,0,0,1-2.61.29A24.47,24.47,0,0,1,37,26l-4.49,6.41,1.6,5.89a7.88,7.88,0,0,1,.45,2,3.08,3.08,0,0,1-.66,1.36A7.26,7.26,0,0,1,31,37.33a7.76,7.76,0,0,1-.11-4.5,12.77,12.77,0,0,1,1.84-3.34c.55-.45.37-1.08-.2-.52a10.62,10.62,0,0,0-3.33,4.9m11,9.36a4.2,4.2,0,0,1-2.94.06A9,9,0,0,1,34.35,42a23,23,0,0,0,2-2.82,5,5,0,0,0,.48-1.57,6.55,6.55,0,0,0-.29-1.52l-1.63-6,1.19-1.72ZM57,31.18a10,10,0,0,0,3.34-.1,7.34,7.34,0,0,0,1.5-.48,8.73,8.73,0,0,0,1.33-.85l.75,3.46A10.35,10.35,0,0,0,62.28,33a7.1,7.1,0,0,0-1.52,0,9.31,9.31,0,0,0-3.19,1.3Zm-2.35-8.34A4.6,4.6,0,0,0,53.36,25a7.94,7.94,0,0,0,.2,3.25l1,4.53a12,12,0,0,1,.38,2.89,4.78,4.78,0,0,1-.72,2,10.78,10.78,0,0,1-2.08,2.44,10.34,10.34,0,0,0,1-2.73,7.61,7.61,0,0,0-.21-2.64l-1.34-6.21a6.62,6.62,0,0,1-.06-3.49,6.83,6.83,0,0,1,2.9-3.35s-.11-.7-.51-.35a10,10,0,0,1-3.11,1.34,7.75,7.75,0,0,1-2.19.07,7.87,7.87,0,0,0-2,0,3.85,3.85,0,0,0-1.6,1.11,4.32,4.32,0,0,0-1.14,1.81,3.7,3.7,0,0,0-.19,1.43c.06.24.61.17.69-.15s.27-.91.31-1.11a1.69,1.69,0,0,1,.9-.7,3.24,3.24,0,0,1,.9-.15c1.36-.05,2.1,0,2.4-.06a5.4,5.4,0,0,0,2-.68,8.73,8.73,0,0,0-1.73,2.66,4.64,4.64,0,0,0-.2,2.91q.09.42.27,1c-.45.05-.87.08-1.2.15a3.44,3.44,0,0,0-1.46.71A2.62,2.62,0,0,0,45.75,33a2.51,2.51,0,0,0-.12,1.13h.44a1.58,1.58,0,0,1,.56-.86,1.9,1.9,0,0,1,1-.45,2.19,2.19,0,0,1,1.79.36,3.5,3.5,0,0,1,1.12,2.07,3.26,3.26,0,0,0-1.28.65A2.54,2.54,0,0,0,48.47,37a3.18,3.18,0,0,0-.11,1.49l.62-.11c.16-.83.5-1.16,1-1.28a1,1,0,0,1,.76.18c.2.14.29.73.36,1a2.74,2.74,0,0,1-.19,1.32A6.78,6.78,0,0,1,50,41.35a15.18,15.18,0,0,0-1.29,2.09,2.88,2.88,0,0,0,0,1.4,1.37,1.37,0,0,0,.5.82.94.94,0,0,0,.72.22.63.63,0,0,0,.41-.31.79.79,0,0,0,.09-.59,1.52,1.52,0,0,0-.38-.73c-.3-.27-.46-.33-.5-.5a1.41,1.41,0,0,1,.2-.89,3.77,3.77,0,0,1,1.51-1.34,8,8,0,0,1,2.52-.88,13.65,13.65,0,0,1,3-.21,24.07,24.07,0,0,1,3.09.5L62,36.44s-.41-.56-.58-.14a2.56,2.56,0,0,1-.72.93,1.86,1.86,0,0,1-1,.55c-.25.06-.81.12-1.14.16-1.21.14-2,.2-2.7.36-.3.06-.79.09-1.4.25A16,16,0,0,1,57.67,35a9,9,0,0,1,3.45-1.45,6.84,6.84,0,0,1,3,.32,6.65,6.65,0,0,1-.1,2.09,18.21,18.21,0,0,1-1.31,2.75,16.05,16.05,0,0,0-1.13,2.63,2.61,2.61,0,0,0-.09,1.21,1.71,1.71,0,0,0,.7,1.08,1.4,1.4,0,0,0,1.16.26,1.5,1.5,0,0,0,.91-.55.76.76,0,0,0,.16-.68.62.62,0,0,0-.28-.44.73.73,0,0,0-.56-.06,1.89,1.89,0,0,0-.4.15c-.17.08-.17,0-.27,0a.51.51,0,0,1-.41,0,.4.4,0,0,1-.2-.28,1.39,1.39,0,0,1,.18-.86,18.1,18.1,0,0,1,1.45-1.82,20,20,0,0,0,2.4-3.41,4.08,4.08,0,0,0,.46-1.67,10.15,10.15,0,0,0-.31-2.37l-.22-2a10.3,10.3,0,0,0-1-2.85,4.81,4.81,0,0,0-1.51-1.6,12.89,12.89,0,0,0-2.93-1.43l-4.23,5.2L56,26.38a7.27,7.27,0,0,1-.2-2.42,2.22,2.22,0,0,1,.69-1.35,10.33,10.33,0,0,1,2.36-1.78s-.11-.72-.71-.38a25.53,25.53,0,0,0-3.46,2.39m5,3.55A7.81,7.81,0,0,1,62,27.47a4.57,4.57,0,0,1,1.05,1.71,5.69,5.69,0,0,1-1.25.79,6.78,6.78,0,0,1-1.54.51,9.35,9.35,0,0,1-3.43,0l-.12-.59Zm12.22,3.42a17.4,17.4,0,0,0-1.77-1.14A8.63,8.63,0,0,0,68.57,28l2.75-2.45Zm5.29,5.47a11.92,11.92,0,0,0-1.68-.15L74,23.43l1.49-1.34ZM73.78,22.67a4,4,0,0,0-.41-1.51,3.58,3.58,0,0,0-1.59-1.34,4.53,4.53,0,0,0-2.4-.25,5.11,5.11,0,0,0-2,.66,6.84,6.84,0,0,0-1.71,1.71l.49.27a4.86,4.86,0,0,1,1-.76,2.73,2.73,0,0,1,.94-.3,2.76,2.76,0,0,1,1.64.3,2.47,2.47,0,0,1,1.11,1.13,7.51,7.51,0,0,1,.44,2.2l-2.45,2.15a13.89,13.89,0,0,1-2.29,1.92s-.3.52.07.6a16.71,16.71,0,0,1,1.94.59,9.21,9.21,0,0,1,2.08,1.24,5.8,5.8,0,0,1,1.46,1.57,4.59,4.59,0,0,1,.47,1.84l.08.6a9.55,9.55,0,0,0-3.34,1.52A8.93,8.93,0,0,0,67,39.56l.42.28a6.24,6.24,0,0,1,2-1.16,10.19,10.19,0,0,1,3.46-.92,10.51,10.51,0,0,1,2.91,0,14.75,14.75,0,0,1,3.28.81l2.85-3.18s-.13-.83-.52-.45a13.14,13.14,0,0,0-1,1.24,15.91,15.91,0,0,0-2.58-.86l-.6-5.73.64-.18a7.8,7.8,0,0,1,2.2.65,5.17,5.17,0,0,1,1.51,1.36A9.13,9.13,0,0,1,83,33.76a13.53,13.53,0,0,0,1.53,2.82A3.94,3.94,0,0,0,86,37.79l2.72-3s-.21-.76-.53-.43l-.9.89a3.15,3.15,0,0,1-.88-.7,4.25,4.25,0,0,1-.6-1.28,11.6,11.6,0,0,0-2.25-3.7,10.14,10.14,0,0,0-3.35-2.45l4-3.35-5.46-5.31Zm7.66,2.47L77,29.06l-1-7.5,1.06-1ZM98,28.42a3.16,3.16,0,0,1,1.1-1.14,4.77,4.77,0,0,1,2.15-.86,3.6,3.6,0,0,1,3.68,1.44c.6.67-.85,2.38-1.54,3.23a8.43,8.43,0,0,1-2.53,2.05,6.62,6.62,0,0,1-2.39.62ZM97.44,23a7.21,7.21,0,0,0,1.8.93,4.65,4.65,0,0,0,1.69.18,5.07,5.07,0,0,0,1.8-.46,8.15,8.15,0,0,0,1.85-1.36,7.89,7.89,0,0,1,.51,1.18,9.8,9.8,0,0,1,.24,1.54,9.71,9.71,0,0,1-.18,2.29,6.81,6.81,0,0,0-2-1.21,4.61,4.61,0,0,0-2-.25,4.21,4.21,0,0,0-1.8.5,6.08,6.08,0,0,0-1.61,1.39Zm-4.66,5a11.48,11.48,0,0,1,0,2.39c-.1.38-.39.6-.76,1a7.89,7.89,0,0,1-2.49-5.08,6.35,6.35,0,0,1,.26-2.41,6.41,6.41,0,0,1,.93-1.91A6.64,6.64,0,0,1,92,20.65Zm4.29-9.46a14,14,0,0,1,3.06.5,9.87,9.87,0,0,1,2.53,1.23,9.07,9.07,0,0,1,1.49,1.46,6.35,6.35,0,0,1-1.52,1.3,3.77,3.77,0,0,1-1.64.48,4.37,4.37,0,0,1-1.82-.23,5.41,5.41,0,0,1-1.82-.79ZM91,20.4c-1.08.85-1.92,1.6-2.73,2.1a18.89,18.89,0,0,0-.68,3.18,15.58,15.58,0,0,0-.12,2.91,8.25,8.25,0,0,0,1.59,4,7.41,7.41,0,0,0,3.34,2.57A8.73,8.73,0,0,0,96.6,36a8.28,8.28,0,0,0,4-1.11,16.46,16.46,0,0,0,4.1-3.22,17.53,17.53,0,0,0,2.83-4.13,5.48,5.48,0,0,0,.51-3.57,7.41,7.41,0,0,0-.92-3.37,9.06,9.06,0,0,0-2.5-2.74,10.39,10.39,0,0,0-3.45-1.59,16.82,16.82,0,0,0-3.64-.55c-.59.51-6,4.24-6.54,4.71m6.72,13.42a7.37,7.37,0,0,1-2.5-.56,8.56,8.56,0,0,1-2.39-1.33l2-2.23a5.48,5.48,0,0,0,.68-1.44,6.36,6.36,0,0,0,0-1.79l-.73-7.67c.29-.56,1-.5,1.59-.16Zm28.11-4.3a1.62,1.62,0,0,1-1,.51c-.42,0-.77-.26-1-.83a7.4,7.4,0,0,1-.31-2.29V23.44h2.11Zm-9.85-12.41a10.83,10.83,0,0,0-.08,1.9L116,29a5.06,5.06,0,0,1-.13,1.75,1.37,1.37,0,0,1-.64.85,3.41,3.41,0,0,1-1.59.4c-.28,0-.62,0-1,0a3.7,3.7,0,0,0,1.78-1.34A7.82,7.82,0,0,0,115,28l-.26-7.47a4.93,4.93,0,0,1,.24-2.79,4,4,0,0,1,1.26-1.77,6.1,6.1,0,0,0-.34,1.17m9.67,4.29-2.24,0V16.67l2-1.46Zm6.18-6.82-3.3-2.38-5.13,3.7a3.62,3.62,0,0,0-.5-2.4,4.2,4.2,0,0,0-1.6-1.3,56.77,56.77,0,0,0-5.74,3.26,9.86,9.86,0,0,0-2.79,3.1,6.47,6.47,0,0,0-.75,3.62,4.39,4.39,0,0,0,.06.6,5.54,5.54,0,0,0-1.81.4,2.4,2.4,0,0,0-1.26.87c-.72,1.26-1.47-.34-1.67.52-.37,1.55.9.24,1.3.9a2,2,0,0,1,1.79-.91,2.9,2.9,0,0,1,2.2,1.39,4.71,4.71,0,0,1,.85,3,2.75,2.75,0,0,1-.55,1.92,2.39,2.39,0,0,1-1.68,1,9.17,9.17,0,0,0-2,.36,2,2,0,0,0-.9.85,2.94,2.94,0,0,0-.4,1.4,3.51,3.51,0,0,0,0,1.06l.52,0a1.2,1.2,0,0,1,.4-.94,1.86,1.86,0,0,1,1.13-.31c.22,0,.84,0,1.34,0a6.53,6.53,0,0,0,1.19,0A4.36,4.36,0,0,0,115.71,33a5.14,5.14,0,0,0,1-3.72l0-5.69,3.7-.11.16,4.13A3.42,3.42,0,0,1,120.4,29a1.18,1.18,0,0,1-.72.71v.49a7.47,7.47,0,0,1,1.23,1,12.41,12.41,0,0,1,2,1.89l4.83-4.18-.47-.53-.82.59-.19-5.57,1.62-2.08-1.69.09-.09-6.72.83-.59,2,1.59L129.17,29a5.31,5.31,0,0,0,.4,2.42c.27.5,1,.93,1.61,1.54l3.3-2.54s-.26-.67-.65-.48-.44.36-.67.37a.77.77,0,0,1-.68-.38,4.05,4.05,0,0,1-.25-1.77l-.11-10.51a5.31,5.31,0,0,1,.17-1.87,5.75,5.75,0,0,1,1.19-2s-.35-.7-.65-.34-1.05,1.14-1.05,1.14m-13.85,6.83-1.16,1.24-.16-4.09a7.05,7.05,0,0,1,.25-2.2,3,3,0,0,1,.8-1.2,5.26,5.26,0,0,1,1.3-.9c.66.25.82.37,1.07.8a7.14,7.14,0,0,1,.32,2.48l.05,3.8Zm26.35-1.36-.21-5.74a15.66,15.66,0,0,0,2.25,1,16.11,16.11,0,0,0,2.36.5Zm-7.45-4.58a10.57,10.57,0,0,0-2.29,3.4,8.84,8.84,0,0,0-.74,3.95,10.4,10.4,0,0,0,2.3,6,9.7,9.7,0,0,0,7.5,3.51,8.7,8.7,0,0,0,5-1.41,11.47,11.47,0,0,0,3.63-3.57c.19-.51.09-.78-.31-.44a10.37,10.37,0,0,1-3.32,1.82,8.27,8.27,0,0,1-3.3.81l-.87-.05-.17-8.88,5.18,0L150.72,18H147l4.47-4.4-.33-.43a7.33,7.33,0,0,1-1.17.12,8.88,8.88,0,0,1-2.25-.33A16.87,16.87,0,0,1,145,11.79l-5.87,4.78.16,6.5a6.09,6.09,0,0,1-.17,2,3,3,0,0,1-1,1.1,7.88,7.88,0,0,1-1.82-5,7.43,7.43,0,0,1,.75-3.93,10.4,10.4,0,0,1,3.28-3.62s.16-.6-.32-.4a22.35,22.35,0,0,0-3.17,2.25m7,14.08a9.25,9.25,0,0,1-2.94-.9,10.14,10.14,0,0,1-2.37-2A17.85,17.85,0,0,0,141,24.28a5.41,5.41,0,0,0,.88-1.24,6,6,0,0,0,.12-1.46l-.12-6.26,1.5-1.19Zm26.71-8.2a9.11,9.11,0,0,0,3.2.66,7,7,0,0,0,1.57-.11,11,11,0,0,0,1.75-.52L177,24.92a13.56,13.56,0,0,0-1.79-.59,8.47,8.47,0,0,0-1.56-.17,8,8,0,0,0-3.17.64Zm-.44-8.63a4.33,4.33,0,0,0-1.67,1.75,8.11,8.11,0,0,0-.49,3.22l-.12,4.5a11.58,11.58,0,0,1-.27,2.92,3.23,3.23,0,0,1-.89,1.57,11.17,11.17,0,0,1-2.58,1.85,8.78,8.78,0,0,0,1.5-2.44,7.53,7.53,0,0,0,.27-2.53l.22-6.14c0-1.59.1-2.68.57-3.37a7.91,7.91,0,0,1,3.66-2.56c.08,0,0-.63-.35-.52a11.28,11.28,0,0,1-3.57.77,8,8,0,0,1-2.16-.44,7.64,7.64,0,0,0-1.9-.43,3.07,3.07,0,0,0-1.75.64,4.62,4.62,0,0,0-2.06,3c.08.16.71.19.73,0a3.07,3.07,0,0,1,.65-1.15,2.34,2.34,0,0,1,1.31-.4,7.37,7.37,0,0,1,1,.19c1.33.26,1.3.38,2,.45a4.7,4.7,0,0,0,2.08-.39A7,7,0,0,0,164,15.35a6.42,6.42,0,0,0-.89,2.88c0,.29-.08.68-.06,1.1a9.1,9.1,0,0,0-1.17,0,4.11,4.11,0,0,0-1.71.42,2.42,2.42,0,0,0-1,.95,2.26,2.26,0,0,0-.37.93c0,.15.37.2.37.2a1.65,1.65,0,0,1,.82-.68,2,2,0,0,1,1.08-.23,2.33,2.33,0,0,1,1.73.75,3.77,3.77,0,0,1,.53,2.32,4.16,4.16,0,0,0-1.54.4,1.83,1.83,0,0,0-.8.78c-.22.36-.58,1-.5,1.27s.41.4.51.13a1.52,1.52,0,0,1,1.17-.9,1.47,1.47,0,0,1,.91.37,1.4,1.4,0,0,1,.23.87,3,3,0,0,1-.53,1.28,7.83,7.83,0,0,1-1.61,1.74,9,9,0,0,0-1.67,1.63,2.92,2.92,0,0,0-.29,1.4,1.3,1.3,0,0,0,.3.91c.21.25.43.17.65.18a.66.66,0,0,0,.48-.21.82.82,0,0,0,.22-.55,1.06,1.06,0,0,0-.24-.63,1.09,1.09,0,0,1-.19-.76,1.07,1.07,0,0,1,.32-.76,3.21,3.21,0,0,1,1.66-1,9.73,9.73,0,0,1,2.86-.33,12.32,12.32,0,0,1,2.86.53,18.25,18.25,0,0,1,3.05,1.17l3.29-4.2-.57-.34a3.91,3.91,0,0,1-1.09,1.1,2.28,2.28,0,0,1-1.2.31c-.25,0-.55,0-.89-.07-1.21-.14-2.17-.22-2.89-.23-.3,0-.77,0-1.4,0a16.44,16.44,0,0,1,4-2.77,8,8,0,0,1,3.5-.74,6.84,6.84,0,0,1,2.94.87,7,7,0,0,1-.55,2,11.87,11.87,0,0,1-1.67,2.41,28.73,28.73,0,0,0-2,2.32,3.49,3.49,0,0,0-.5,1.22,1.66,1.66,0,0,0,.43,1.21,1.71,1.71,0,0,0,1.18.56,1.5,1.5,0,0,0,1-.35.77.77,0,0,0,.33-.61.67.67,0,0,0-.16-.5.78.78,0,0,0-.54-.19,2.16,2.16,0,0,0-.43.06,2.87,2.87,0,0,1-.42,0c-.17,0-.24-.11-.34-.2a.63.63,0,0,1-.14-.4c0-.22.18-.35.42-.65a16.24,16.24,0,0,1,2.12-1.78,12.44,12.44,0,0,0,3.06-2.74,5.8,5.8,0,0,0,.76-1.6,9.19,9.19,0,0,0,.31-2.31l0-2a10.64,10.64,0,0,0-.22-3,5.07,5.07,0,0,0-1.11-1.91A13.25,13.25,0,0,0,176,15.05l-5.3,4.19.15-3a6.67,6.67,0,0,1,.19-2.17,2.81,2.81,0,0,1,1.12-1.25,15.12,15.12,0,0,1,2.55-1.08c.19,0,.15-.74-.16-.67a30.84,30.84,0,0,0-4.39,1.63m4.18,4.46A7.23,7.23,0,0,1,176.23,19,3.73,3.73,0,0,1,177,20.7a7,7,0,0,1-1.52.57,6.57,6.57,0,0,1-1.62.15,9,9,0,0,1-3.26-.76v-.61ZM191.24,21l.52-5.9a15.64,15.64,0,0,0,2.13,1.2,15.17,15.17,0,0,0,2.3.75Zm-6.61-5.49a11.33,11.33,0,0,0-2.75,3.2,9.22,9.22,0,0,0-1.16,3.94,10.88,10.88,0,0,0,1.61,6.14,9.08,9.08,0,0,0,6.93,4.28,9.91,9.91,0,0,0,5.45-1,18.5,18.5,0,0,0,3.87-3.23c.12-.21-.07-.75-.37-.4a14.56,14.56,0,0,1-3.13,1.46,8.77,8.77,0,0,1-3.69.51h-.73l.69-8.87,5,.51,1.79-2.56-3.62-.33,4.65-3.93-.28-.46a5.73,5.73,0,0,1-1.08,0,6.72,6.72,0,0,1-2-.47,19,19,0,0,1-2.93-1.52L186.5,17,186,23.5a6.36,6.36,0,0,1-.27,1.83,3.92,3.92,0,0,1-1.23,1,7.69,7.69,0,0,1-1.14-5.12,7.84,7.84,0,0,1,1.26-3.9,10.86,10.86,0,0,1,3.53-3.14c.29-.13-.08-.59-.47-.39a24.08,24.08,0,0,0-3,1.7M190,30.23a12.27,12.27,0,0,1-3-1.11,9.73,9.73,0,0,1-2.2-2.2,23.07,23.07,0,0,0,3-2.2c.31-.28.62-.47.72-.73a4.43,4.43,0,0,0,.43-1.43l.53-6.63,1.69-1.1Zm21.6-1.38-.3,2.59L208,33.14l-6.52-4,1.6-1.63ZM212,27l-7.23-1.16,7.18-7.2c.34.32.9.66.8,1.36-.08.53-.75,7-.75,7m4.45-10.22a11,11,0,0,0-1.56,1.05,11.29,11.29,0,0,0-6-3.42,9.54,9.54,0,0,0-4.26.37,6.69,6.69,0,0,0-3.23,2.39,6.91,6.91,0,0,0-1.52,3.46,6.38,6.38,0,0,0,.59,3.24,9.49,9.49,0,0,0,2.19,3.11l-2,2.07c-.1.1-.72.71-.83.83a11.91,11.91,0,0,0-1.34,1.43,3.32,3.32,0,0,0-.54,1.32,1.49,1.49,0,0,0,.18,1,1.16,1.16,0,0,0,.72.42.63.63,0,0,0,.48-.11.57.57,0,0,0,.25-.41,1.46,1.46,0,0,0-.2-.72,1.56,1.56,0,0,1-.14-.81.64.64,0,0,1,.27-.47,1,1,0,0,1,.7-.14c1.05.15,2.74,1.54,5.38,3.87l5.69-3a5.27,5.27,0,0,0-.06,2.7,3,3,0,0,0,1.33,1.49l1-.6,2.76-1.66s-.17-.71-.44-.51a2.1,2.1,0,0,1-1.07.49c-.22,0-.51-.35-.63-.62a8.07,8.07,0,0,1,.17-2.56L215.57,21c.06-.41.1-.73.13-1a6.46,6.46,0,0,1,.43-1.68,2.72,2.72,0,0,1,.79-.94,4.7,4.7,0,0,1,1.31-.64c.46-.17.3-.8-.24-.67a7.49,7.49,0,0,0-1.55.65m-6.3,2.69a5.4,5.4,0,0,0-1.93-.79,3.55,3.55,0,0,0-1.83,0,3.38,3.38,0,0,0-1.53,1,3.18,3.18,0,0,0-.66,1.1.27.27,0,0,0,0,.22c0,.06.08.1.14.1s.19,0,.3-.17a2.35,2.35,0,0,1,2.18-.61,3.63,3.63,0,0,1,1.66.89l-5.22,5.2c-1.81-1.72-2.6-3.56-2.4-5.12a5.25,5.25,0,0,1,1-2.71,5.87,5.87,0,0,1,2.67-1.7,7.47,7.47,0,0,1,3.49-.16,8.85,8.85,0,0,1,3.43,1.55ZM224,27.83a14.53,14.53,0,0,0-1.37-1.53,9.9,9.9,0,0,0-1.35-1.23l3.46-1.48Zm3.25,6.73a10.21,10.21,0,0,0-1.48-.56l2.17-11.78,1.91-.88Zm.86-13.21a4.38,4.38,0,0,0-.08-1.72,3.91,3.91,0,0,0-1.25-1.74,5.64,5.64,0,0,0-2.51-.81,3,3,0,0,0-1.69.11c-.61.15-2,.75-2.07,1s.1.25.37.27a3.85,3.85,0,0,0,.95-.2,3.4,3.4,0,0,1,1.09.06,2.55,2.55,0,0,1,1.49.69,2,2,0,0,1,.72,1.24,8.23,8.23,0,0,1-.15,2.53l-3.27,1.38c-1.19.54-2.36.92-2.56,1s-.35.47-.15.57a13.54,13.54,0,0,1,1.42,1,10.64,10.64,0,0,1,1.82,1.9,5.53,5.53,0,0,1,.92,1.94,5.31,5.31,0,0,1,0,2.17l-.2.53a10.28,10.28,0,0,0-3.74.53,13.22,13.22,0,0,0-2.82,1.52c-.37.33-.2.69.29.48a11.66,11.66,0,0,1,1.88-.41,12.64,12.64,0,0,1,6.4.89,9.84,9.84,0,0,1,3,2.05L231.92,36s-.1-.53-.3-.51a12.53,12.53,0,0,0-1.66,1,13.62,13.62,0,0,0-2.09-1.53l1.06-5.6a3.53,3.53,0,0,1,.6-.28,5.71,5.71,0,0,1,1.9,1.17,5.3,5.3,0,0,1,1.18,1.75,9.5,9.5,0,0,1,.67,2.66,21.56,21.56,0,0,0,.56,3.4A4.54,4.54,0,0,0,235,39.6s3.14-1.81,3.44-2,0-.8-.38-.58-1.09.63-1.09.63a3.33,3.33,0,0,1-.62-1,6.7,6.7,0,0,1-.34-1.76,12,12,0,0,0-1-4.23,8.32,8.32,0,0,0-2.29-2.89l4.84-2.13-3.5-6.77Zm6.54,4.81L229,28.64l1.42-7.51,1.43-.64ZM249.36,40.5a11.85,11.85,0,0,1-1.56-.18,9.45,9.45,0,0,1-2.24-.84c-.44-.24-1.43-1.06-1.53-1.48.42-.33,2.4-1.21,3-1.65a3.91,3.91,0,0,0,1.56-2.47l1.68-8c.63.28,1.21.42,2,.72Zm8.3-15.45a3.16,3.16,0,0,1-1.5,0,26.87,26.87,0,0,1-4.33-1.42A32.54,32.54,0,0,0,247,22.05a8.27,8.27,0,0,0-3.74,0,6.48,6.48,0,0,0-3,1.57,16,16,0,0,0-2,2.5c-.18.35.27.57.55.18a9.23,9.23,0,0,1,1.64-1.48,4.31,4.31,0,0,1,2-.81,5.08,5.08,0,0,1,2.15.06l1.35.44a16.3,16.3,0,0,0-2.92,1.54,10.31,10.31,0,0,0-2.64,2.58,8.91,8.91,0,0,0-1.5,3.37,7.87,7.87,0,0,0,0,3.41,8.69,8.69,0,0,0,1.19,2.86,8.19,8.19,0,0,0,2,2.12,11.65,11.65,0,0,0,4.47,2,9.55,9.55,0,0,0,4.72-.19,9,9,0,0,0,3.29-1.83c.1-.07.5-.1.44.46a5.2,5.2,0,0,0,1.1-1.07c.21-.19-.69-.05-.42-.4a11.54,11.54,0,0,0,1.22-1.79s0-.61-.53-.13a15.19,15.19,0,0,1-2.66,2,9.79,9.79,0,0,1-3.65,1L253,26.86c.6.18,1.06.28,1.49.37a4.68,4.68,0,0,0,2.15-.05,4.53,4.53,0,0,0,1.7-.76,5.91,5.91,0,0,0,1.34-1.85c.1-.3-.09-.65-.55-.32a6.19,6.19,0,0,1-1.42.8m-12.34,9.63a5.32,5.32,0,0,1-.62,1.82c-.22.31-1,1-1.3.91-.57-.13-2.3-2.9-1.6-6.31a8.63,8.63,0,0,1,2-4A10.65,10.65,0,0,1,246.4,25c.43-.18,1.25-.41.79,1.25-.2,1-1.87,8.43-1.87,8.43M258,44a3.57,3.57,0,0,1-1.87-1,.94.94,0,0,1-.22-.91,1,1,0,0,1,.65-.69,2.85,2.85,0,0,1,1.84,0,12.65,12.65,0,0,1,4.55,2.2c0,.53-3.62.82-4.95.45m6.12-5.32c1.15.11,2.13.27,4.08.58a8.48,8.48,0,0,1,1.47.41,1.3,1.3,0,0,1,.82.64,1.4,1.4,0,0,1-.06,1.25c-.56.64-1.26,1-3.29,1.51-.5-.34-2.12-1.15-2.6-1.45s-1.39-.72-2.18-1.13ZM267.74,35a36,36,0,0,1,3.6.67,5.44,5.44,0,0,1,2.34,1.22,4,4,0,0,1,1.29,2,3.72,3.72,0,0,1,0,2.07,4.22,4.22,0,0,1-1.64,2.37A9.07,9.07,0,0,1,270.2,45L268,43.54a13.51,13.51,0,0,0,3.73-1.18,3.83,3.83,0,0,0,1.57-1.43,2.24,2.24,0,0,0-.41-2.09,3.18,3.18,0,0,0-2.09-1.38c-.8-.22-2.53-.53-4.65-.87Zm-2.32,1.44a22.56,22.56,0,0,1-2.65-.52c-1.55-.42-2.64-.81-3.16-1.44a1.54,1.54,0,0,1-.33-1.49,1.5,1.5,0,0,1,1.2-1.17,2.38,2.38,0,0,0,.8,1.5,6.7,6.7,0,0,0,2.51.92,20.82,20.82,0,0,0,3.18.62Zm-2.95-8.12a5.49,5.49,0,0,0-1.87,2.62c0,.25-.33.28-.33.28a2.46,2.46,0,0,0-1.49.44,3,3,0,0,0-1.45,1.77,3.09,3.09,0,0,0,0,1.51,3.19,3.19,0,0,0,.81,1.43,5.29,5.29,0,0,0,1.7,1.17,9.48,9.48,0,0,0,1.78.69l1.72.31-1.6,1.65a9.6,9.6,0,0,0-1.73-.72,5.4,5.4,0,0,0-3.53,0,2.54,2.54,0,0,0-1.62,1.65,2.28,2.28,0,0,0,.46,2,4.17,4.17,0,0,0,2.42,1.44c1.59.43,3.71.19,6.5-.3,1.27.8,2.06,1.5,3,2.13,3.31-.87,5.65-1.67,7.17-2.72a6,6,0,0,0,2.83-3.44,4,4,0,0,0,.1-2.21,5.63,5.63,0,0,0-1.12-2.08,6.45,6.45,0,0,0-1.94-1.65,9.51,9.51,0,0,0-2.35-.93s-1.83-.25-1.82-.58,3.71-4,3.71-4c.31-.31.64-.57.67-.69a.31.31,0,0,0,0-.23.38.38,0,0,0-.2-.15.37.37,0,0,0-.27,0,4.36,4.36,0,0,0-.62.55l-.65.57-5.23-3.44a21.87,21.87,0,0,0-5,2.87M269,32.8c-2.15-.38-3.3-.6-3.9-.75a3.29,3.29,0,0,1-1.93-1,1.57,1.57,0,0,1-.16-1.77A1.84,1.84,0,0,1,264.11,28a2.61,2.61,0,0,1,2.05-.27,6.62,6.62,0,0,1,1.93.76,13.62,13.62,0,0,1,2.77,2.22A13.44,13.44,0,0,1,269,32.8m3.49,13.42a.41.41,0,0,1,.16,0,.37.37,0,0,1,.23.21.37.37,0,0,1,0,.29.32.32,0,0,1-.21.2.59.59,0,0,1-.4,0l-.05,0Zm-.43-.23c.06,0,.1,0,.11.07a.11.11,0,0,1,0,.08.84.84,0,0,1-.06.18l-.4,1a1.17,1.17,0,0,1-.07.15s-.05,0-.09,0a.23.23,0,0,1-.13,0l0,.05.69.28,0-.06c-.08,0-.14-.06-.15-.09a.11.11,0,0,1,0-.11l.23-.59.14.06.24,1,.35.14,0-.06a.31.31,0,0,1-.09-.07.77.77,0,0,1-.07-.19l-.16-.72a.74.74,0,0,0,.38,0,.41.41,0,0,0,.2-.21.45.45,0,0,0,0-.36.71.71,0,0,0-.36-.28l-.72-.29Zm.24-.37a1.33,1.33,0,0,0-.69.29,1.38,1.38,0,0,0-.45.6,1.29,1.29,0,0,0-.09.73,1.33,1.33,0,0,0,.29.69,1.41,1.41,0,0,0,.59.44,1.49,1.49,0,0,0,.73.1,1.43,1.43,0,0,0,.69-.3,1.36,1.36,0,0,0,.45-.59,1.42,1.42,0,0,0,.08-.74,1.25,1.25,0,0,0-.29-.69,1.52,1.52,0,0,0-.58-.44,1.62,1.62,0,0,0-.73-.09m1.21.6a1.23,1.23,0,0,1,.27.63,1.41,1.41,0,0,1-.08.68,1.32,1.32,0,0,1-.4.54,1.26,1.26,0,0,1-.64.27,1.23,1.23,0,0,1-.66-.09,1.32,1.32,0,0,1-.54-.4,1.23,1.23,0,0,1-.27-.63,1.37,1.37,0,0,1,.09-.67,1.32,1.32,0,0,1,.4-.54,1.3,1.3,0,0,1,.64-.27,1.34,1.34,0,0,1,.66.08,1.46,1.46,0,0,1,.53.4" transform="translate(-3.94 -6.33)"/></svg>